<svg width="116" height="63" viewBox="0 0 116 63" fill="none" xmlns="http://www.w3.org/2000/svg">
<g opacity="0.3">
<mask id="mask0_2_214" style="mask-type:alpha" maskUnits="userSpaceOnUse" x="14" y="0" width="11" height="11">
<path d="M19.5095 10.425C22.397 10.425 24.7378 8.09126 24.7378 5.21248C24.7378 2.3337 22.397 0 19.5095 0C16.6219 0 14.2811 2.3337 14.2811 5.21248C14.2811 8.09126 16.6219 10.425 19.5095 10.425Z" fill="url(#paint0_linear_2_214)"/>
</mask>
<g mask="url(#mask0_2_214)">
<path d="M19.5095 10.425C22.397 10.425 24.7378 8.09126 24.7378 5.21248C24.7378 2.3337 22.397 0 19.5095 0C16.6219 0 14.2811 2.3337 14.2811 5.21248C14.2811 8.09126 16.6219 10.425 19.5095 10.425Z" fill="url(#paint1_linear_2_214)"/>
</g>
<mask id="mask1_2_214" style="mask-type:alpha" maskUnits="userSpaceOnUse" x="44" y="0" width="12" height="11">
<path d="M49.7905 10.425C52.6781 10.425 55.0189 8.09126 55.0189 5.21248C55.0189 2.3337 52.6781 0 49.7905 0C46.903 0 44.5621 2.3337 44.5621 5.21248C44.5621 8.09126 46.903 10.425 49.7905 10.425Z" fill="url(#paint2_linear_2_214)"/>
</mask>
<g mask="url(#mask1_2_214)">
<path d="M49.7905 10.425C52.6781 10.425 55.0189 8.09126 55.0189 5.21248C55.0189 2.3337 52.6781 0 49.7905 0C46.903 0 44.5621 2.3337 44.5621 5.21248C44.5621 8.09126 46.903 10.425 49.7905 10.425Z" fill="url(#paint3_linear_2_214)"/>
</g>
<mask id="mask2_2_214" style="mask-type:alpha" maskUnits="userSpaceOnUse" x="74" y="0" width="12" height="11">
<path d="M80.0716 10.425C82.9592 10.425 85.3 8.09126 85.3 5.21248C85.3 2.3337 82.9592 0 80.0716 0C77.184 0 74.8432 2.3337 74.8432 5.21248C74.8432 8.09126 77.184 10.425 80.0716 10.425Z" fill="url(#paint4_linear_2_214)"/>
</mask>
<g mask="url(#mask2_2_214)">
<path d="M80.0716 10.425C82.9592 10.425 85.3 8.09126 85.3 5.21248C85.3 2.3337 82.9592 0 80.0716 0C77.184 0 74.8432 2.3337 74.8432 5.21248C74.8432 8.09126 77.184 10.425 80.0716 10.425Z" fill="url(#paint5_linear_2_214)"/>
</g>
<mask id="mask3_2_214" style="mask-type:alpha" maskUnits="userSpaceOnUse" x="105" y="0" width="11" height="11">
<path d="M110.353 10.425C113.24 10.425 115.581 8.09126 115.581 5.21248C115.581 2.3337 113.24 0 110.353 0C107.465 0 105.124 2.3337 105.124 5.21248C105.124 8.09126 107.465 10.425 110.353 10.425Z" fill="url(#paint6_linear_2_214)"/>
</mask>
<g mask="url(#mask3_2_214)">
<path d="M110.353 10.425C113.24 10.425 115.581 8.09126 115.581 5.21248C115.581 2.3337 113.24 0 110.353 0C107.465 0 105.124 2.3337 105.124 5.21248C105.124 8.09126 107.465 10.425 110.353 10.425Z" fill="url(#paint7_linear_2_214)"/>
</g>
<mask id="mask4_2_214" style="mask-type:alpha" maskUnits="userSpaceOnUse" x="14" y="26" width="11" height="11">
<path d="M19.5095 36.5959C22.397 36.5959 24.7378 34.2621 24.7378 31.3833C24.7378 28.5046 22.397 26.1709 19.5095 26.1709C16.6219 26.1709 14.2811 28.5046 14.2811 31.3833C14.2811 34.2621 16.6219 36.5959 19.5095 36.5959Z" fill="url(#paint8_linear_2_214)"/>
</mask>
<g mask="url(#mask4_2_214)">
<path d="M19.5095 36.5959C22.397 36.5959 24.7378 34.2621 24.7378 31.3833C24.7378 28.5046 22.397 26.1709 19.5095 26.1709C16.6219 26.1709 14.2811 28.5046 14.2811 31.3833C14.2811 34.2621 16.6219 36.5959 19.5095 36.5959Z" fill="url(#paint9_linear_2_214)"/>
</g>
<mask id="mask5_2_214" style="mask-type:alpha" maskUnits="userSpaceOnUse" x="44" y="26" width="12" height="11">
<path d="M49.7905 36.5959C52.6781 36.5959 55.0189 34.2621 55.0189 31.3833C55.0189 28.5046 52.6781 26.1709 49.7905 26.1709C46.903 26.1709 44.5621 28.5046 44.5621 31.3833C44.5621 34.2621 46.903 36.5959 49.7905 36.5959Z" fill="url(#paint10_linear_2_214)"/>
</mask>
<g mask="url(#mask5_2_214)">
<path d="M49.7905 36.5959C52.6781 36.5959 55.0189 34.2621 55.0189 31.3833C55.0189 28.5046 52.6781 26.1709 49.7905 26.1709C46.903 26.1709 44.5621 28.5046 44.5621 31.3833C44.5621 34.2621 46.903 36.5959 49.7905 36.5959Z" fill="url(#paint11_linear_2_214)"/>
</g>
<mask id="mask6_2_214" style="mask-type:alpha" maskUnits="userSpaceOnUse" x="74" y="26" width="12" height="11">
<path d="M80.0716 36.5959C82.9592 36.5959 85.3 34.2621 85.3 31.3833C85.3 28.5046 82.9592 26.1709 80.0716 26.1709C77.184 26.1709 74.8432 28.5046 74.8432 31.3833C74.8432 34.2621 77.184 36.5959 80.0716 36.5959Z" fill="url(#paint12_linear_2_214)"/>
</mask>
<g mask="url(#mask6_2_214)">
<path d="M80.0716 36.5959C82.9592 36.5959 85.3 34.2621 85.3 31.3833C85.3 28.5046 82.9592 26.1709 80.0716 26.1709C77.184 26.1709 74.8432 28.5046 74.8432 31.3833C74.8432 34.2621 77.184 36.5959 80.0716 36.5959Z" fill="url(#paint13_linear_2_214)"/>
</g>
<mask id="mask7_2_214" style="mask-type:alpha" maskUnits="userSpaceOnUse" x="105" y="26" width="11" height="11">
<path d="M110.353 36.5959C113.24 36.5959 115.581 34.2621 115.581 31.3833C115.581 28.5046 113.24 26.1709 110.353 26.1709C107.465 26.1709 105.124 28.5046 105.124 31.3833C105.124 34.2621 107.465 36.5959 110.353 36.5959Z" fill="url(#paint14_linear_2_214)"/>
</mask>
<g mask="url(#mask7_2_214)">
<path d="M110.353 36.5959C113.24 36.5959 115.581 34.2621 115.581 31.3833C115.581 28.5046 113.24 26.1709 110.353 26.1709C107.465 26.1709 105.124 28.5046 105.124 31.3833C105.124 34.2621 107.465 36.5959 110.353 36.5959Z" fill="url(#paint15_linear_2_214)"/>
</g>
<mask id="mask8_2_214" style="mask-type:alpha" maskUnits="userSpaceOnUse" x="14" y="52" width="11" height="11">
<path d="M19.5095 62.7125C22.397 62.7125 24.7378 60.3788 24.7378 57.5C24.7378 54.6213 22.397 52.2875 19.5095 52.2875C16.6219 52.2875 14.2811 54.6213 14.2811 57.5C14.2811 60.3788 16.6219 62.7125 19.5095 62.7125Z" fill="url(#paint16_linear_2_214)"/>
</mask>
<g mask="url(#mask8_2_214)">
<path d="M19.5095 62.7125C22.397 62.7125 24.7378 60.3788 24.7378 57.5C24.7378 54.6213 22.397 52.2875 19.5095 52.2875C16.6219 52.2875 14.2811 54.6213 14.2811 57.5C14.2811 60.3788 16.6219 62.7125 19.5095 62.7125Z" fill="url(#paint17_linear_2_214)"/>
</g>
<mask id="mask9_2_214" style="mask-type:alpha" maskUnits="userSpaceOnUse" x="44" y="52" width="12" height="11">
<path d="M49.7905 62.7125C52.6781 62.7125 55.0189 60.3788 55.0189 57.5C55.0189 54.6213 52.6781 52.2875 49.7905 52.2875C46.903 52.2875 44.5621 54.6213 44.5621 57.5C44.5621 60.3788 46.903 62.7125 49.7905 62.7125Z" fill="url(#paint18_linear_2_214)"/>
</mask>
<g mask="url(#mask9_2_214)">
<path d="M49.7905 62.7125C52.6781 62.7125 55.0189 60.3788 55.0189 57.5C55.0189 54.6213 52.6781 52.2875 49.7905 52.2875C46.903 52.2875 44.5621 54.6213 44.5621 57.5C44.5621 60.3788 46.903 62.7125 49.7905 62.7125Z" fill="url(#paint19_linear_2_214)"/>
</g>
<mask id="mask10_2_214" style="mask-type:alpha" maskUnits="userSpaceOnUse" x="74" y="52" width="12" height="11">
<path d="M80.0716 62.7125C82.9592 62.7125 85.3 60.3788 85.3 57.5C85.3 54.6213 82.9592 52.2875 80.0716 52.2875C77.184 52.2875 74.8432 54.6213 74.8432 57.5C74.8432 60.3788 77.184 62.7125 80.0716 62.7125Z" fill="url(#paint20_linear_2_214)"/>
</mask>
<g mask="url(#mask10_2_214)">
<path d="M80.0716 62.7125C82.9592 62.7125 85.3 60.3788 85.3 57.5C85.3 54.6213 82.9592 52.2875 80.0716 52.2875C77.184 52.2875 74.8432 54.6213 74.8432 57.5C74.8432 60.3788 77.184 62.7125 80.0716 62.7125Z" fill="url(#paint21_linear_2_214)"/>
</g>
<mask id="mask11_2_214" style="mask-type:alpha" maskUnits="userSpaceOnUse" x="105" y="52" width="11" height="11">
<path d="M110.353 62.7125C113.24 62.7125 115.581 60.3788 115.581 57.5C115.581 54.6213 113.24 52.2875 110.353 52.2875C107.465 52.2875 105.124 54.6213 105.124 57.5C105.124 60.3788 107.465 62.7125 110.353 62.7125Z" fill="url(#paint22_linear_2_214)"/>
</mask>
<g mask="url(#mask11_2_214)">
<path d="M110.353 62.7125C113.24 62.7125 115.581 60.3788 115.581 57.5C115.581 54.6213 113.24 52.2875 110.353 52.2875C107.465 52.2875 105.124 54.6213 105.124 57.5C105.124 60.3788 107.465 62.7125 110.353 62.7125Z" fill="url(#paint23_linear_2_214)"/>
</g>
</g>
<defs>
<linearGradient id="paint0_linear_2_214" x1="47.3157" y1="75.5789" x2="-24.0859" y2="-106.225" gradientUnits="userSpaceOnUse">
<stop/>
<stop offset="1" stop-color="white"/>
</linearGradient>
<linearGradient id="paint1_linear_2_214" x1="47.3157" y1="75.5789" x2="-24.0859" y2="-106.225" gradientUnits="userSpaceOnUse">
<stop stop-color="#97C3F9"/>
<stop offset="1" stop-color="#93C1F9"/>
</linearGradient>
<linearGradient id="paint2_linear_2_214" x1="73.5201" y1="65.2874" x2="2.11849" y2="-116.516" gradientUnits="userSpaceOnUse">
<stop/>
<stop offset="1" stop-color="white"/>
</linearGradient>
<linearGradient id="paint3_linear_2_214" x1="73.5201" y1="65.2874" x2="2.11849" y2="-116.516" gradientUnits="userSpaceOnUse">
<stop stop-color="#97C3F9"/>
<stop offset="1" stop-color="#93C1F9"/>
</linearGradient>
<linearGradient id="paint4_linear_2_214" x1="99.7243" y1="54.9958" x2="28.3227" y2="-126.808" gradientUnits="userSpaceOnUse">
<stop/>
<stop offset="1" stop-color="white"/>
</linearGradient>
<linearGradient id="paint5_linear_2_214" x1="99.7243" y1="54.9958" x2="28.3227" y2="-126.808" gradientUnits="userSpaceOnUse">
<stop stop-color="#97C3F9"/>
<stop offset="1" stop-color="#93C1F9"/>
</linearGradient>
<linearGradient id="paint6_linear_2_214" x1="125.929" y1="44.7044" x2="54.5271" y2="-137.099" gradientUnits="userSpaceOnUse">
<stop/>
<stop offset="1" stop-color="white"/>
</linearGradient>
<linearGradient id="paint7_linear_2_214" x1="125.929" y1="44.7044" x2="54.5271" y2="-137.099" gradientUnits="userSpaceOnUse">
<stop stop-color="#97C3F9"/>
<stop offset="1" stop-color="#93C1F9"/>
</linearGradient>
<linearGradient id="paint8_linear_2_214" x1="38.3734" y1="79.091" x2="-33.0283" y2="-102.713" gradientUnits="userSpaceOnUse">
<stop/>
<stop offset="1" stop-color="white"/>
</linearGradient>
<linearGradient id="paint9_linear_2_214" x1="38.3734" y1="79.091" x2="-33.0283" y2="-102.713" gradientUnits="userSpaceOnUse">
<stop stop-color="#97C3F9"/>
<stop offset="1" stop-color="#93C1F9"/>
</linearGradient>
<linearGradient id="paint10_linear_2_214" x1="64.5777" y1="68.7993" x2="-6.82391" y2="-113.004" gradientUnits="userSpaceOnUse">
<stop/>
<stop offset="1" stop-color="white"/>
</linearGradient>
<linearGradient id="paint11_linear_2_214" x1="64.5777" y1="68.7993" x2="-6.82391" y2="-113.004" gradientUnits="userSpaceOnUse">
<stop stop-color="#97C3F9"/>
<stop offset="1" stop-color="#93C1F9"/>
</linearGradient>
<linearGradient id="paint12_linear_2_214" x1="90.782" y1="58.5079" x2="19.3804" y2="-123.296" gradientUnits="userSpaceOnUse">
<stop/>
<stop offset="1" stop-color="white"/>
</linearGradient>
<linearGradient id="paint13_linear_2_214" x1="90.782" y1="58.5079" x2="19.3804" y2="-123.296" gradientUnits="userSpaceOnUse">
<stop stop-color="#97C3F9"/>
<stop offset="1" stop-color="#93C1F9"/>
</linearGradient>
<linearGradient id="paint14_linear_2_214" x1="116.986" y1="48.2164" x2="45.5847" y2="-133.587" gradientUnits="userSpaceOnUse">
<stop/>
<stop offset="1" stop-color="white"/>
</linearGradient>
<linearGradient id="paint15_linear_2_214" x1="116.986" y1="48.2164" x2="45.5847" y2="-133.587" gradientUnits="userSpaceOnUse">
<stop stop-color="#97C3F9"/>
<stop offset="1" stop-color="#93C1F9"/>
</linearGradient>
<linearGradient id="paint16_linear_2_214" x1="29.431" y1="82.6029" x2="-41.9706" y2="-99.2009" gradientUnits="userSpaceOnUse">
<stop/>
<stop offset="1" stop-color="white"/>
</linearGradient>
<linearGradient id="paint17_linear_2_214" x1="29.431" y1="82.6029" x2="-41.9706" y2="-99.2009" gradientUnits="userSpaceOnUse">
<stop stop-color="#97C3F9"/>
<stop offset="1" stop-color="#93C1F9"/>
</linearGradient>
<linearGradient id="paint18_linear_2_214" x1="55.6353" y1="72.3114" x2="-15.7663" y2="-109.492" gradientUnits="userSpaceOnUse">
<stop/>
<stop offset="1" stop-color="white"/>
</linearGradient>
<linearGradient id="paint19_linear_2_214" x1="55.6353" y1="72.3114" x2="-15.7663" y2="-109.492" gradientUnits="userSpaceOnUse">
<stop stop-color="#97C3F9"/>
<stop offset="1" stop-color="#93C1F9"/>
</linearGradient>
<linearGradient id="paint20_linear_2_214" x1="81.8397" y1="62.0199" x2="10.438" y2="-119.784" gradientUnits="userSpaceOnUse">
<stop/>
<stop offset="1" stop-color="white"/>
</linearGradient>
<linearGradient id="paint21_linear_2_214" x1="81.8397" y1="62.0199" x2="10.438" y2="-119.784" gradientUnits="userSpaceOnUse">
<stop stop-color="#97C3F9"/>
<stop offset="1" stop-color="#805AB1"/>
<stop offset="1" stop-color="#93C1F9"/>
</linearGradient>
<linearGradient id="paint22_linear_2_214" x1="108.044" y1="51.7284" x2="36.6424" y2="-130.075" gradientUnits="userSpaceOnUse">
<stop/>
<stop offset="1" stop-color="white"/>
</linearGradient>
<linearGradient id="paint23_linear_2_214" x1="108.044" y1="51.7284" x2="36.6424" y2="-130.075" gradientUnits="userSpaceOnUse">
<stop stop-color="#97C3F9"/>
<stop offset="1" stop-color="#93C1F9"/>
</linearGradient>
</defs>
</svg>
