<svg width="132" height="63" viewBox="0 0 132 63" fill="none" xmlns="http://www.w3.org/2000/svg">
<g opacity="0.3">
<mask id="mask0_2_290" style="mask-type:alpha" maskUnits="userSpaceOnUse" x="0" y="0" width="11" height="11">
<path d="M5.22838 10.425C8.11594 10.425 10.4568 8.09126 10.4568 5.21248C10.4568 2.3337 8.11594 0 5.22838 0C2.34082 0 0 2.3337 0 5.21248C0 8.09126 2.34082 10.425 5.22838 10.425Z" fill="url(#paint0_linear_2_290)"/>
</mask>
<g mask="url(#mask0_2_290)">
<path d="M5.22838 10.425C8.11594 10.425 10.4568 8.09126 10.4568 5.21248C10.4568 2.3337 8.11594 0 5.22838 0C2.34082 0 0 2.3337 0 5.21248C0 8.09126 2.34082 10.425 5.22838 10.425Z" fill="url(#paint1_linear_2_290)"/>
</g>
<mask id="mask1_2_290" style="mask-type:alpha" maskUnits="userSpaceOnUse" x="30" y="0" width="11" height="11">
<path d="M35.5095 10.425C38.397 10.425 40.7378 8.09126 40.7378 5.21248C40.7378 2.3337 38.397 0 35.5095 0C32.6219 0 30.2811 2.3337 30.2811 5.21248C30.2811 8.09126 32.6219 10.425 35.5095 10.425Z" fill="url(#paint2_linear_2_290)"/>
</mask>
<g mask="url(#mask1_2_290)">
<path d="M35.5095 10.425C38.397 10.425 40.7378 8.09126 40.7378 5.21248C40.7378 2.3337 38.397 0 35.5095 0C32.6219 0 30.2811 2.3337 30.2811 5.21248C30.2811 8.09126 32.6219 10.425 35.5095 10.425Z" fill="url(#paint3_linear_2_290)"/>
</g>
<mask id="mask2_2_290" style="mask-type:alpha" maskUnits="userSpaceOnUse" x="60" y="0" width="12" height="11">
<path d="M65.7905 10.425C68.6781 10.425 71.0189 8.09126 71.0189 5.21248C71.0189 2.3337 68.6781 0 65.7905 0C62.9029 0 60.5621 2.3337 60.5621 5.21248C60.5621 8.09126 62.9029 10.425 65.7905 10.425Z" fill="url(#paint4_linear_2_290)"/>
</mask>
<g mask="url(#mask2_2_290)">
<path d="M65.7905 10.425C68.6781 10.425 71.0189 8.09126 71.0189 5.21248C71.0189 2.3337 68.6781 0 65.7905 0C62.9029 0 60.5621 2.3337 60.5621 5.21248C60.5621 8.09126 62.9029 10.425 65.7905 10.425Z" fill="url(#paint5_linear_2_290)"/>
</g>
<mask id="mask3_2_290" style="mask-type:alpha" maskUnits="userSpaceOnUse" x="90" y="0" width="12" height="11">
<path d="M96.0716 10.425C98.9592 10.425 101.3 8.09126 101.3 5.21248C101.3 2.3337 98.9592 0 96.0716 0C93.184 0 90.8432 2.3337 90.8432 5.21248C90.8432 8.09126 93.184 10.425 96.0716 10.425Z" fill="url(#paint6_linear_2_290)"/>
</mask>
<g mask="url(#mask3_2_290)">
<path d="M96.0716 10.425C98.9592 10.425 101.3 8.09126 101.3 5.21248C101.3 2.3337 98.9592 0 96.0716 0C93.184 0 90.8432 2.3337 90.8432 5.21248C90.8432 8.09126 93.184 10.425 96.0716 10.425Z" fill="url(#paint7_linear_2_290)"/>
</g>
<mask id="mask4_2_290" style="mask-type:alpha" maskUnits="userSpaceOnUse" x="121" y="0" width="11" height="11">
<path d="M126.353 10.425C129.24 10.425 131.581 8.09126 131.581 5.21248C131.581 2.3337 129.24 0 126.353 0C123.465 0 121.124 2.3337 121.124 5.21248C121.124 8.09126 123.465 10.425 126.353 10.425Z" fill="url(#paint8_linear_2_290)"/>
</mask>
<g mask="url(#mask4_2_290)">
<path d="M126.353 10.425C129.24 10.425 131.581 8.09126 131.581 5.21248C131.581 2.3337 129.24 0 126.353 0C123.465 0 121.124 2.3337 121.124 5.21248C121.124 8.09126 123.465 10.425 126.353 10.425Z" fill="url(#paint9_linear_2_290)"/>
</g>
<mask id="mask5_2_290" style="mask-type:alpha" maskUnits="userSpaceOnUse" x="0" y="26" width="11" height="11">
<path d="M5.22838 36.5959C8.11594 36.5959 10.4568 34.2621 10.4568 31.3833C10.4568 28.5046 8.11594 26.1709 5.22838 26.1709C2.34082 26.1709 0 28.5046 0 31.3833C0 34.2621 2.34082 36.5959 5.22838 36.5959Z" fill="url(#paint10_linear_2_290)"/>
</mask>
<g mask="url(#mask5_2_290)">
<path d="M5.22838 36.5959C8.11594 36.5959 10.4568 34.2621 10.4568 31.3833C10.4568 28.5046 8.11594 26.1709 5.22838 26.1709C2.34082 26.1709 0 28.5046 0 31.3833C0 34.2621 2.34082 36.5959 5.22838 36.5959Z" fill="url(#paint11_linear_2_290)"/>
</g>
<mask id="mask6_2_290" style="mask-type:alpha" maskUnits="userSpaceOnUse" x="30" y="26" width="11" height="11">
<path d="M35.5095 36.5959C38.397 36.5959 40.7378 34.2621 40.7378 31.3833C40.7378 28.5046 38.397 26.1709 35.5095 26.1709C32.6219 26.1709 30.2811 28.5046 30.2811 31.3833C30.2811 34.2621 32.6219 36.5959 35.5095 36.5959Z" fill="url(#paint12_linear_2_290)"/>
</mask>
<g mask="url(#mask6_2_290)">
<path d="M35.5095 36.5959C38.397 36.5959 40.7378 34.2621 40.7378 31.3833C40.7378 28.5046 38.397 26.1709 35.5095 26.1709C32.6219 26.1709 30.2811 28.5046 30.2811 31.3833C30.2811 34.2621 32.6219 36.5959 35.5095 36.5959Z" fill="url(#paint13_linear_2_290)"/>
</g>
<mask id="mask7_2_290" style="mask-type:alpha" maskUnits="userSpaceOnUse" x="60" y="26" width="12" height="11">
<path d="M65.7905 36.5959C68.6781 36.5959 71.0189 34.2621 71.0189 31.3833C71.0189 28.5046 68.6781 26.1709 65.7905 26.1709C62.9029 26.1709 60.5621 28.5046 60.5621 31.3833C60.5621 34.2621 62.9029 36.5959 65.7905 36.5959Z" fill="url(#paint14_linear_2_290)"/>
</mask>
<g mask="url(#mask7_2_290)">
<path d="M65.7905 36.5959C68.6781 36.5959 71.0189 34.2621 71.0189 31.3833C71.0189 28.5046 68.6781 26.1709 65.7905 26.1709C62.9029 26.1709 60.5621 28.5046 60.5621 31.3833C60.5621 34.2621 62.9029 36.5959 65.7905 36.5959Z" fill="url(#paint15_linear_2_290)"/>
</g>
<mask id="mask8_2_290" style="mask-type:alpha" maskUnits="userSpaceOnUse" x="90" y="26" width="12" height="11">
<path d="M96.0716 36.5959C98.9592 36.5959 101.3 34.2621 101.3 31.3833C101.3 28.5046 98.9592 26.1709 96.0716 26.1709C93.184 26.1709 90.8432 28.5046 90.8432 31.3833C90.8432 34.2621 93.184 36.5959 96.0716 36.5959Z" fill="url(#paint16_linear_2_290)"/>
</mask>
<g mask="url(#mask8_2_290)">
<path d="M96.0716 36.5959C98.9592 36.5959 101.3 34.2621 101.3 31.3833C101.3 28.5046 98.9592 26.1709 96.0716 26.1709C93.184 26.1709 90.8432 28.5046 90.8432 31.3833C90.8432 34.2621 93.184 36.5959 96.0716 36.5959Z" fill="url(#paint17_linear_2_290)"/>
</g>
<mask id="mask9_2_290" style="mask-type:alpha" maskUnits="userSpaceOnUse" x="121" y="26" width="11" height="11">
<path d="M126.353 36.5959C129.24 36.5959 131.581 34.2621 131.581 31.3833C131.581 28.5046 129.24 26.1709 126.353 26.1709C123.465 26.1709 121.124 28.5046 121.124 31.3833C121.124 34.2621 123.465 36.5959 126.353 36.5959Z" fill="url(#paint18_linear_2_290)"/>
</mask>
<g mask="url(#mask9_2_290)">
<path d="M126.353 36.5959C129.24 36.5959 131.581 34.2621 131.581 31.3833C131.581 28.5046 129.24 26.1709 126.353 26.1709C123.465 26.1709 121.124 28.5046 121.124 31.3833C121.124 34.2621 123.465 36.5959 126.353 36.5959Z" fill="url(#paint19_linear_2_290)"/>
</g>
<mask id="mask10_2_290" style="mask-type:alpha" maskUnits="userSpaceOnUse" x="0" y="52" width="11" height="11">
<path d="M5.22838 62.7125C8.11594 62.7125 10.4568 60.3788 10.4568 57.5C10.4568 54.6213 8.11594 52.2875 5.22838 52.2875C2.34082 52.2875 0 54.6213 0 57.5C0 60.3788 2.34082 62.7125 5.22838 62.7125Z" fill="url(#paint20_linear_2_290)"/>
</mask>
<g mask="url(#mask10_2_290)">
<path d="M5.22838 62.7125C8.11594 62.7125 10.4568 60.3788 10.4568 57.5C10.4568 54.6213 8.11594 52.2875 5.22838 52.2875C2.34082 52.2875 0 54.6213 0 57.5C0 60.3788 2.34082 62.7125 5.22838 62.7125Z" fill="url(#paint21_linear_2_290)"/>
</g>
<mask id="mask11_2_290" style="mask-type:alpha" maskUnits="userSpaceOnUse" x="30" y="52" width="11" height="11">
<path d="M35.5095 62.7125C38.397 62.7125 40.7378 60.3788 40.7378 57.5C40.7378 54.6213 38.397 52.2875 35.5095 52.2875C32.6219 52.2875 30.2811 54.6213 30.2811 57.5C30.2811 60.3788 32.6219 62.7125 35.5095 62.7125Z" fill="url(#paint22_linear_2_290)"/>
</mask>
<g mask="url(#mask11_2_290)">
<path d="M35.5095 62.7125C38.397 62.7125 40.7378 60.3788 40.7378 57.5C40.7378 54.6213 38.397 52.2875 35.5095 52.2875C32.6219 52.2875 30.2811 54.6213 30.2811 57.5C30.2811 60.3788 32.6219 62.7125 35.5095 62.7125Z" fill="url(#paint23_linear_2_290)"/>
</g>
<mask id="mask12_2_290" style="mask-type:alpha" maskUnits="userSpaceOnUse" x="60" y="52" width="12" height="11">
<path d="M65.7905 62.7125C68.6781 62.7125 71.0189 60.3788 71.0189 57.5C71.0189 54.6213 68.6781 52.2875 65.7905 52.2875C62.9029 52.2875 60.5621 54.6213 60.5621 57.5C60.5621 60.3788 62.9029 62.7125 65.7905 62.7125Z" fill="url(#paint24_linear_2_290)"/>
</mask>
<g mask="url(#mask12_2_290)">
<path d="M65.7905 62.7125C68.6781 62.7125 71.0189 60.3788 71.0189 57.5C71.0189 54.6213 68.6781 52.2875 65.7905 52.2875C62.9029 52.2875 60.5621 54.6213 60.5621 57.5C60.5621 60.3788 62.9029 62.7125 65.7905 62.7125Z" fill="url(#paint25_linear_2_290)"/>
</g>
<mask id="mask13_2_290" style="mask-type:alpha" maskUnits="userSpaceOnUse" x="90" y="52" width="12" height="11">
<path d="M96.0716 62.7125C98.9592 62.7125 101.3 60.3788 101.3 57.5C101.3 54.6213 98.9592 52.2875 96.0716 52.2875C93.184 52.2875 90.8432 54.6213 90.8432 57.5C90.8432 60.3788 93.184 62.7125 96.0716 62.7125Z" fill="url(#paint26_linear_2_290)"/>
</mask>
<g mask="url(#mask13_2_290)">
<path d="M96.0716 62.7125C98.9592 62.7125 101.3 60.3788 101.3 57.5C101.3 54.6213 98.9592 52.2875 96.0716 52.2875C93.184 52.2875 90.8432 54.6213 90.8432 57.5C90.8432 60.3788 93.184 62.7125 96.0716 62.7125Z" fill="url(#paint27_linear_2_290)"/>
</g>
<mask id="mask14_2_290" style="mask-type:alpha" maskUnits="userSpaceOnUse" x="121" y="52" width="11" height="11">
<path d="M126.353 62.7125C129.24 62.7125 131.581 60.3788 131.581 57.5C131.581 54.6213 129.24 52.2875 126.353 52.2875C123.465 52.2875 121.124 54.6213 121.124 57.5C121.124 60.3788 123.465 62.7125 126.353 62.7125Z" fill="url(#paint28_linear_2_290)"/>
</mask>
<g mask="url(#mask14_2_290)">
<path d="M126.353 62.7125C129.24 62.7125 131.581 60.3788 131.581 57.5C131.581 54.6213 129.24 52.2875 126.353 52.2875C123.465 52.2875 121.124 54.6213 121.124 57.5C121.124 60.3788 123.465 62.7125 126.353 62.7125Z" fill="url(#paint29_linear_2_290)"/>
</g>
</g>
<defs>
<linearGradient id="paint0_linear_2_290" x1="37.1113" y1="85.8705" x2="-34.2903" y2="-95.9333" gradientUnits="userSpaceOnUse">
<stop/>
<stop offset="1" stop-color="white"/>
</linearGradient>
<linearGradient id="paint1_linear_2_290" x1="37.1113" y1="85.8705" x2="-34.2903" y2="-95.9333" gradientUnits="userSpaceOnUse">
<stop stop-color="#97C3F9"/>
<stop offset="1" stop-color="#93C1F9"/>
</linearGradient>
<linearGradient id="paint2_linear_2_290" x1="63.3157" y1="75.5789" x2="-8.0859" y2="-106.225" gradientUnits="userSpaceOnUse">
<stop/>
<stop offset="1" stop-color="white"/>
</linearGradient>
<linearGradient id="paint3_linear_2_290" x1="63.3157" y1="75.5789" x2="-8.0859" y2="-106.225" gradientUnits="userSpaceOnUse">
<stop stop-color="#97C3F9"/>
<stop offset="1" stop-color="#93C1F9"/>
</linearGradient>
<linearGradient id="paint4_linear_2_290" x1="89.52" y1="65.2874" x2="18.1185" y2="-116.516" gradientUnits="userSpaceOnUse">
<stop/>
<stop offset="1" stop-color="white"/>
</linearGradient>
<linearGradient id="paint5_linear_2_290" x1="89.52" y1="65.2874" x2="18.1185" y2="-116.516" gradientUnits="userSpaceOnUse">
<stop stop-color="#97C3F9"/>
<stop offset="1" stop-color="#93C1F9"/>
</linearGradient>
<linearGradient id="paint6_linear_2_290" x1="115.724" y1="54.9958" x2="44.3227" y2="-126.808" gradientUnits="userSpaceOnUse">
<stop/>
<stop offset="1" stop-color="white"/>
</linearGradient>
<linearGradient id="paint7_linear_2_290" x1="115.724" y1="54.9958" x2="44.3227" y2="-126.808" gradientUnits="userSpaceOnUse">
<stop stop-color="#97C3F9"/>
<stop offset="1" stop-color="#93C1F9"/>
</linearGradient>
<linearGradient id="paint8_linear_2_290" x1="141.929" y1="44.7044" x2="70.5271" y2="-137.099" gradientUnits="userSpaceOnUse">
<stop/>
<stop offset="1" stop-color="white"/>
</linearGradient>
<linearGradient id="paint9_linear_2_290" x1="141.929" y1="44.7044" x2="70.5271" y2="-137.099" gradientUnits="userSpaceOnUse">
<stop stop-color="#97C3F9"/>
<stop offset="1" stop-color="#93C1F9"/>
</linearGradient>
<linearGradient id="paint10_linear_2_290" x1="28.169" y1="89.3824" x2="-43.2327" y2="-92.4214" gradientUnits="userSpaceOnUse">
<stop/>
<stop offset="1" stop-color="white"/>
</linearGradient>
<linearGradient id="paint11_linear_2_290" x1="28.169" y1="89.3824" x2="-43.2327" y2="-92.4214" gradientUnits="userSpaceOnUse">
<stop stop-color="#97C3F9"/>
<stop offset="1" stop-color="#93C1F9"/>
</linearGradient>
<linearGradient id="paint12_linear_2_290" x1="54.3734" y1="79.091" x2="-17.0283" y2="-102.713" gradientUnits="userSpaceOnUse">
<stop/>
<stop offset="1" stop-color="white"/>
</linearGradient>
<linearGradient id="paint13_linear_2_290" x1="54.3734" y1="79.091" x2="-17.0283" y2="-102.713" gradientUnits="userSpaceOnUse">
<stop stop-color="#97C3F9"/>
<stop offset="1" stop-color="#93C1F9"/>
</linearGradient>
<linearGradient id="paint14_linear_2_290" x1="80.5776" y1="68.7993" x2="9.17606" y2="-113.004" gradientUnits="userSpaceOnUse">
<stop/>
<stop offset="1" stop-color="white"/>
</linearGradient>
<linearGradient id="paint15_linear_2_290" x1="80.5776" y1="68.7993" x2="9.17606" y2="-113.004" gradientUnits="userSpaceOnUse">
<stop stop-color="#97C3F9"/>
<stop offset="1" stop-color="#93C1F9"/>
</linearGradient>
<linearGradient id="paint16_linear_2_290" x1="106.782" y1="58.5079" x2="35.3804" y2="-123.296" gradientUnits="userSpaceOnUse">
<stop/>
<stop offset="1" stop-color="white"/>
</linearGradient>
<linearGradient id="paint17_linear_2_290" x1="106.782" y1="58.5079" x2="35.3804" y2="-123.296" gradientUnits="userSpaceOnUse">
<stop stop-color="#97C3F9"/>
<stop offset="1" stop-color="#93C1F9"/>
</linearGradient>
<linearGradient id="paint18_linear_2_290" x1="132.986" y1="48.2164" x2="61.5847" y2="-133.587" gradientUnits="userSpaceOnUse">
<stop/>
<stop offset="1" stop-color="white"/>
</linearGradient>
<linearGradient id="paint19_linear_2_290" x1="132.986" y1="48.2164" x2="61.5847" y2="-133.587" gradientUnits="userSpaceOnUse">
<stop stop-color="#97C3F9"/>
<stop offset="1" stop-color="#93C1F9"/>
</linearGradient>
<linearGradient id="paint20_linear_2_290" x1="19.2266" y1="92.8943" x2="-52.1751" y2="-88.9094" gradientUnits="userSpaceOnUse">
<stop/>
<stop offset="1" stop-color="white"/>
</linearGradient>
<linearGradient id="paint21_linear_2_290" x1="19.2266" y1="92.8943" x2="-52.1751" y2="-88.9094" gradientUnits="userSpaceOnUse">
<stop stop-color="#97C3F9"/>
<stop offset="1" stop-color="#93C1F9"/>
</linearGradient>
<linearGradient id="paint22_linear_2_290" x1="45.431" y1="82.6029" x2="-25.9706" y2="-99.2009" gradientUnits="userSpaceOnUse">
<stop/>
<stop offset="1" stop-color="white"/>
</linearGradient>
<linearGradient id="paint23_linear_2_290" x1="45.431" y1="82.6029" x2="-25.9706" y2="-99.2009" gradientUnits="userSpaceOnUse">
<stop stop-color="#97C3F9"/>
<stop offset="1" stop-color="#93C1F9"/>
</linearGradient>
<linearGradient id="paint24_linear_2_290" x1="71.6353" y1="72.3114" x2="0.233718" y2="-109.492" gradientUnits="userSpaceOnUse">
<stop/>
<stop offset="1" stop-color="white"/>
</linearGradient>
<linearGradient id="paint25_linear_2_290" x1="71.6353" y1="72.3114" x2="0.233718" y2="-109.492" gradientUnits="userSpaceOnUse">
<stop stop-color="#97C3F9"/>
<stop offset="1" stop-color="#93C1F9"/>
</linearGradient>
<linearGradient id="paint26_linear_2_290" x1="97.8397" y1="62.0199" x2="26.438" y2="-119.784" gradientUnits="userSpaceOnUse">
<stop/>
<stop offset="1" stop-color="white"/>
</linearGradient>
<linearGradient id="paint27_linear_2_290" x1="97.8397" y1="62.0199" x2="26.438" y2="-119.784" gradientUnits="userSpaceOnUse">
<stop stop-color="#97C3F9"/>
<stop offset="1" stop-color="#805AB1"/>
<stop offset="1" stop-color="#93C1F9"/>
</linearGradient>
<linearGradient id="paint28_linear_2_290" x1="124.044" y1="51.7284" x2="52.6424" y2="-130.075" gradientUnits="userSpaceOnUse">
<stop/>
<stop offset="1" stop-color="white"/>
</linearGradient>
<linearGradient id="paint29_linear_2_290" x1="124.044" y1="51.7284" x2="52.6424" y2="-130.075" gradientUnits="userSpaceOnUse">
<stop stop-color="#97C3F9"/>
<stop offset="1" stop-color="#93C1F9"/>
</linearGradient>
</defs>
</svg>
